<svg width="14" height="11" viewBox="0 0 14 11" fill="none" xmlns="http://www.w3.org/2000/svg">
<path id="Arrow 1" d="M12.869 6.13873C13.2503 6.13873 13.5594 5.82959 13.5594 5.44824C13.5594 5.06689 13.2503 4.75775 12.869 4.75775V6.13873ZM0.421042 4.95999C0.151389 5.22964 0.151389 5.66684 0.421042 5.93649L4.8153 10.3308C5.08496 10.6004 5.52215 10.6004 5.79181 10.3308C6.06146 10.0611 6.06146 9.62391 5.79181 9.35425L1.8858 5.44824L5.79181 1.54223C6.06146 1.27258 6.06146 0.835384 5.79181 0.56573C5.52215 0.296076 5.08496 0.296076 4.8153 0.56573L0.421042 4.95999ZM12.869 4.75775L0.909294 4.75775V6.13873L12.869 6.13873V4.75775Z" fill="#858585"/>
</svg>
